<svg width="180" height="48" viewBox="0 0 180 48" fill="none" xmlns="http://www.w3.org/2000/svg">
<rect width="180" height="48" fill="#F5F5F5"/>
<g id="Pixel6a" clip-path="url(#clip0_34_1906)">
<rect width="360" height="640" transform="translate(0 -80)" fill="white"/>
<g id="Frame 12726" clip-path="url(#clip1_34_1906)">
<rect width="360" height="512" fill="#F3E5AB"/>
<g id="Tabs" filter="url(#filter0_d_34_1906)">
<rect width="360" height="48" stroke="#8B4513" shape-rendering="crispEdges"/>
<g id="Tabs_2">
<rect x="0.5" y="0.5" width="179" height="47" stroke="white"/>
<g id="Elevation/00dp">
<g id="Rectangle" style="mix-blend-mode:multiply">
<path d="M180 0H0V48H180V0Z" fill="white"/>
</g>
</g>
<path id="Container" d="M180 0H0V48H180V0Z" fill="#F08030"/>
<path id="Indicator" d="M180 46H0V48H180V46Z" fill="white"/>
<g id="&#227;&#130;&#191;&#227;&#131;&#150;" filter="url(#filter1_d_34_1906)">
<path d="M59.3784 14.926C60.3024 15.43 61.8424 16.41 62.5704 16.928L61.5344 18.468C60.7504 17.922 59.2944 16.984 58.3704 16.466L59.3784 14.926ZM56.7884 24.866C58.3564 24.6 60.0224 24.124 61.5484 23.284C63.9284 21.954 65.8884 20.036 66.9944 18.034L68.0724 19.938C66.7844 21.884 64.7964 23.648 62.5144 24.978C61.0864 25.776 59.0704 26.476 57.8384 26.7L56.7884 24.866ZM57.2224 18.118C58.1604 18.622 59.7004 19.574 60.4284 20.092L59.3924 21.66C58.6084 21.1 57.1524 20.162 56.2144 19.658L57.2224 18.118ZM72.4404 15.36C73.4064 16.018 75.2264 17.474 76.0524 18.328L74.6244 19.784C73.8964 19 72.1324 17.474 71.1104 16.774L72.4404 15.36ZM70.6764 24.684C72.8744 24.376 74.6804 23.662 76.0384 22.864C78.4324 21.436 80.2524 19.308 81.1484 17.418L82.2264 19.378C81.1764 21.282 79.3144 23.214 77.0604 24.572C75.6324 25.426 73.8264 26.196 71.8664 26.532L70.6764 24.684ZM93.9724 14.534C94.3224 15.052 94.8124 15.934 95.0784 16.452L93.9584 16.942C93.6644 16.368 93.2304 15.528 92.8524 14.996L93.9724 14.534ZM95.6244 13.904C95.9884 14.436 96.5064 15.318 96.7584 15.808L95.6384 16.284C95.3444 15.71 94.8964 14.884 94.5184 14.366L95.6244 13.904ZM95.2184 17.614C95.0644 17.894 94.8684 18.272 94.7564 18.622C94.3784 19.868 93.5804 21.744 92.3204 23.298C90.9904 24.922 89.2964 26.21 86.6644 27.246L85.0124 25.776C87.8824 24.908 89.4364 23.69 90.6544 22.304C91.6064 21.212 92.4184 19.532 92.6424 18.496H87.9244L88.5684 16.9C89.1984 16.9 92.1244 16.9 92.5724 16.9C93.0064 16.9 93.4684 16.844 93.7904 16.732L95.2184 17.614ZM90.6544 15.402C90.3324 15.892 89.9684 16.536 89.8004 16.83C88.8624 18.524 87.1824 20.498 85.1804 21.87L83.5984 20.708C86.0624 19.21 87.2804 17.404 87.9804 16.2C88.1904 15.864 88.4844 15.206 88.6104 14.73L90.6544 15.402ZM104.094 25.692C104.164 25.426 104.206 25.048 104.206 24.67C104.206 23.928 104.206 17.642 104.206 16.508C104.206 15.878 104.108 15.332 104.108 15.304H106.18C106.18 15.332 106.082 15.892 106.082 16.522C106.082 17.642 106.082 22.976 106.082 23.83C107.23 23.34 108.602 22.234 109.554 20.876L110.618 22.43C109.456 23.942 107.454 25.454 105.872 26.252C105.578 26.406 105.41 26.56 105.27 26.658L104.094 25.692ZM97.6124 25.496C98.8584 24.628 99.6144 23.34 99.9924 22.136C100.398 20.946 100.412 18.286 100.412 16.606C100.412 16.032 100.356 15.668 100.272 15.318H102.33C102.33 15.374 102.232 16.004 102.232 16.578C102.232 18.244 102.19 21.198 101.826 22.612C101.392 24.18 100.524 25.566 99.3204 26.63L97.6124 25.496ZM118.724 18.202L124.52 17.502L124.702 19.042L118.906 19.77L118.724 18.202ZM121.846 14.954L123.12 14.296C123.68 15.024 124.296 15.99 124.52 16.648L123.176 17.404C122.952 16.746 122.392 15.696 121.846 14.954ZM111.486 14.856L112.844 14.422C113.264 15.136 113.67 16.088 113.796 16.732L112.34 17.236C112.256 16.606 111.878 15.612 111.486 14.856ZM113.992 14.436L115.392 14.114C115.7 14.856 115.994 15.85 116.078 16.466L114.608 16.844C114.538 16.228 114.272 15.206 113.992 14.436ZM113.348 20.596V21.394H117.17V20.596H113.348ZM113.348 18.636V19.434H117.17V18.636H113.348ZM111.976 17.39H118.598V22.626H111.976V17.39ZM111.472 23.466H118.99V24.936H111.472V23.466ZM117.534 14.17L119.27 14.632C118.752 15.64 118.15 16.718 117.688 17.404L116.358 16.97C116.792 16.2 117.282 15.038 117.534 14.17ZM114.566 17.796H115.98V22.01H116.078V27.246H114.468V22.01H114.566V17.796ZM123.078 19.462L124.352 20.19C123.372 23.116 121.314 25.902 118.808 27.274C118.514 26.882 118.024 26.392 117.59 26.098C120.18 24.922 122.168 22.276 123.078 19.462ZM119.83 14.17H121.412C121.482 20.12 122.21 25.118 123.204 25.216C123.442 25.216 123.582 24.572 123.652 23.354C123.932 23.704 124.604 24.166 124.856 24.32C124.492 26.686 123.792 27.232 123.204 27.204C120.726 27.106 120.026 21.884 119.83 14.17Z" fill="white"/>
</g>
</g>
</g>
</g>
</g>
<defs>
<filter id="filter0_d_34_1906" x="-8.5" y="-4.5" width="377" height="65" filterUnits="userSpaceOnUse" color-interpolation-filters="sRGB">
<feFlood flood-opacity="0" result="BackgroundImageFix"/>
<feColorMatrix in="SourceAlpha" type="matrix" values="0 0 0 0 0 0 0 0 0 0 0 0 0 0 0 0 0 0 127 0" result="hardAlpha"/>
<feOffset dy="4"/>
<feGaussianBlur stdDeviation="4"/>
<feComposite in2="hardAlpha" operator="out"/>
<feColorMatrix type="matrix" values="0 0 0 0 0 0 0 0 0 0 0 0 0 0 0 0 0 0 0.25 0"/>
<feBlend mode="normal" in2="BackgroundImageFix" result="effect1_dropShadow_34_1906"/>
<feBlend mode="normal" in="SourceGraphic" in2="effect1_dropShadow_34_1906" result="shape"/>
</filter>
<filter id="filter1_d_34_1906" x="48.2144" y="9.90401" width="84.642" height="29.37" filterUnits="userSpaceOnUse" color-interpolation-filters="sRGB">
<feFlood flood-opacity="0" result="BackgroundImageFix"/>
<feColorMatrix in="SourceAlpha" type="matrix" values="0 0 0 0 0 0 0 0 0 0 0 0 0 0 0 0 0 0 127 0" result="hardAlpha"/>
<feOffset dy="4"/>
<feGaussianBlur stdDeviation="4"/>
<feComposite in2="hardAlpha" operator="out"/>
<feColorMatrix type="matrix" values="0 0 0 0 0 0 0 0 0 0 0 0 0 0 0 0 0 0 0.2 0"/>
<feBlend mode="normal" in2="BackgroundImageFix" result="effect1_dropShadow_34_1906"/>
<feBlend mode="normal" in="SourceGraphic" in2="effect1_dropShadow_34_1906" result="shape"/>
</filter>
<clipPath id="clip0_34_1906">
<rect width="360" height="640" fill="white" transform="translate(0 -80)"/>
</clipPath>
<clipPath id="clip1_34_1906">
<rect width="360" height="512" fill="white"/>
</clipPath>
</defs>
</svg>
